# xmcd
#
# Track frame offsets:
#	150
#	21189
#	38490
#	53623
#	72412
#	88168
#	119278
#	131226
#
# Disc length: 1893 seconds
#
# Revision: 1
# Processed by: cddbd v1.5.2PL0 Copyright (c) Steve Scherf et al.
# Submitted via: audiograbber 1.83.01
#
DISCID=69076308
DTITLE=Rzab and Davenport - R and D Dept.
DYEAR=2013
DGENRE=Blues
TTITLE0=Watermelon Man
TTITLE1=Cissy Strut
TTITLE2=Chicago Line (feat. John Mayall)
TTITLE3=The Low End
TTITLE4=Havna Headhunter
TTITLE5=Hear My Train A Comin' (feat. Walter Trout)
TTITLE6=Jungle Boogie
TTITLE7=R&D Shuffle
EXTD=
EXTT0=
EXTT1=
EXTT2=
EXTT3=
EXTT4=
EXTT5=
EXTT6=
EXTT7=
PLAYORDER=
